<?xml version="1.0" encoding="utf-8"?>
<!-- Generator: Adobe Illustrator 22.0.0, SVG Export Plug-In . SVG Version: 6.00 Build 0)  -->
<svg version="1.1" id="Layer_1" xmlns="http://www.w3.org/2000/svg" xmlns:xlink="http://www.w3.org/1999/xlink" x="0px" y="0px"
	 viewBox="0 0 100 100" style="enable-background:new 0 0 100 100;" xml:space="preserve">
<style type="text/css">
	.st0{fill:#4B85F3;}
	.st1{fill:#ECEEF9;}
</style>
<title>Node-Red_SK_Icons15_50x50</title>
<path class="st0" d="M50,3.1c25.9,0,46.9,21,46.9,46.9S75.9,96.9,50,96.9c-25.9,0-46.9-21-46.9-46.9C3.1,24.1,24.1,3.1,50,3.1 M50,0
	C22.4,0,0,22.4,0,50s22.4,50,50,50s50-22.4,50-50S77.6,0,50,0z"/>
<path class="st1" d="M11.8,55.4h21.3V46H11.8V55.4z M54.3,36v9.4h21.3V36H54.3z"/>
<path class="st0" d="M87.6,52.5H63.7c-0.7,0-1.3,0.6-1.3,1.3v5.8c-4.5,0.5-8.9-1.2-12-4.4c-3.2-3-7.4-4.7-11.7-4.8
	c2-1.1,3.9-2.5,5.4-4.2c2-2.2,4.7-3.7,7.6-4.2v5c0,0.7,0.6,1.3,1.3,1.3h24c0.7,0,1.3-0.6,1.3-1.3v-12c0-0.7-0.6-1.3-1.3-1.3H53
	c-0.7,0-1.3,0.6-1.3,1.3v4.6c-3.6,0.5-6.9,2.3-9.3,5c-4,4.1-6.1,4.4-6.7,4.4l0,0v-4c0-0.7-0.6-1.3-1.3-1.3H10.5
	c-0.7,0-1.3,0.6-1.3,1.3v12c0,0.7,0.6,1.3,1.3,1.3h24c0.7,0,1.3-0.6,1.3-1.3v-4.2c2.4-0.1,9.1,0,13.1,4.2c3.2,3.4,7.6,5.3,12.3,5.3
	c0.5,0,0.9,0,1.3,0v3.8c0,0.7,0.6,1.3,1.3,1.3h23.9c0.7,0,1.3-0.6,1.3-1.3v-12C88.9,53.1,88.4,52.5,87.6,52.5
	C87.6,52.5,87.6,52.5,87.6,52.5z M54.3,36h21.3v9.4H54.3V36z M33.1,55.4H11.8V46h21.3V55.4z"/>
</svg>
